<svg width="124" height="853" viewBox="0 0 124 853" fill="none" xmlns="http://www.w3.org/2000/svg">
<path d="M105 852.891L1.31999 852.891L1.31999 795.803L105 795.803L105 810.267L11.688 810.267L11.688 838.427L105 838.427L105 852.891ZM106.152 750.585C106.152 757.582 104.787 763.172 102.056 767.353C99.3253 771.534 95.4427 774.521 90.408 776.313C85.288 778.105 79.3147 779.001 72.488 779.001L33.192 779.001C26.3653 779.001 20.52 778.105 15.656 776.313C10.7067 774.436 6.95199 771.449 4.39199 767.353C1.74666 763.172 0.423991 757.582 0.423991 750.585C0.423991 743.588 1.74666 738.041 4.39199 733.945C7.03732 729.849 10.792 726.905 15.656 725.113C20.52 723.236 26.3653 722.297 33.192 722.297L72.616 722.297C79.3573 722.297 85.2453 723.236 90.28 725.113C95.3147 726.905 99.24 729.849 102.056 733.945C104.787 738.041 106.152 743.588 106.152 750.585ZM94.76 750.585C94.76 746.745 93.992 743.844 92.456 741.881C90.8347 739.918 88.616 738.596 85.8 737.913C82.8987 737.23 79.528 736.889 75.688 736.889L30.248 736.889C26.408 736.889 23.1227 737.23 20.392 737.913C17.576 738.596 15.4427 739.918 13.992 741.881C12.456 743.844 11.688 746.745 11.688 750.585C11.688 754.425 12.456 757.369 13.992 759.417C15.4427 761.38 17.576 762.702 20.392 763.385C23.1227 764.068 26.408 764.409 30.248 764.409L75.688 764.409C79.528 764.409 82.8987 764.068 85.8 763.385C88.616 762.702 90.8347 761.38 92.456 759.417C93.992 757.369 94.76 754.425 94.76 750.585ZM106.152 679.537C106.152 686.876 104.616 692.593 101.544 696.689C98.472 700.7 94.3333 703.516 89.128 705.137C83.9227 706.673 78.12 707.441 71.72 707.441L35.112 707.441C28.1147 707.441 22.0133 706.673 16.808 705.137C11.6027 703.516 7.59199 700.7 4.77599 696.689C1.87465 692.593 0.423988 686.876 0.423988 679.537C0.423988 673.052 1.61865 667.932 4.00799 664.177C6.39732 660.337 9.81065 657.606 14.248 655.985C18.6853 654.278 24.0187 653.425 30.248 653.425L38.44 653.425L38.44 667.121L31.144 667.121C27.304 667.121 23.9333 667.334 21.032 667.761C18.0453 668.102 15.7413 669.126 14.12 670.833C12.4987 672.54 11.688 675.398 11.688 679.409C11.688 683.505 12.584 686.492 14.376 688.369C16.0827 690.246 18.5573 691.484 21.8 692.081C24.9573 692.593 28.6693 692.849 32.936 692.849L74.024 692.849C79.2293 692.849 83.368 692.422 86.44 691.569C89.4267 690.716 91.56 689.308 92.84 687.345C94.12 685.382 94.76 682.737 94.76 679.409C94.76 675.484 93.9067 672.668 92.2 670.961C90.408 669.254 87.976 668.188 84.904 667.761C81.832 667.334 78.248 667.121 74.152 667.121L66.472 667.121L66.472 653.425L74.152 653.425C80.4667 653.425 86.056 654.193 90.92 655.729C95.6987 657.265 99.4533 659.91 102.184 663.665C104.829 667.42 106.152 672.71 106.152 679.537ZM105 625.694L12.072 625.694L12.072 643.23L1.31998 643.23L1.31998 594.206L12.072 594.206L12.072 611.23L105 611.23L105 625.694Z" fill="white"/>
<path d="M105 581.651L1.31998 581.651L1.31998 524.563L105 524.563L105 539.027L11.688 539.027L11.688 567.187L105 567.187L105 581.651ZM105 505.841L1.31998 505.841L1.31998 480.113C1.31998 473.884 2.47198 468.934 4.77598 465.265C6.99464 461.51 10.2373 458.78 14.504 457.073C18.7706 455.366 23.9333 454.513 29.992 454.513C35.4533 454.513 40.1893 455.494 44.2 457.457C48.2106 459.334 51.3253 462.15 53.544 465.905C55.6773 469.66 56.744 474.353 56.744 479.985L56.744 491.377L105 491.377L105 505.841ZM46.376 491.377L46.376 484.721C46.376 480.54 45.9066 477.254 44.968 474.865C44.0293 472.476 42.408 470.769 40.104 469.745C37.7146 468.721 34.3866 468.209 30.12 468.209C25.1706 468.209 21.3733 468.593 18.728 469.361C16.0826 470.044 14.248 471.537 13.224 473.841C12.2 476.145 11.688 479.729 11.688 484.593L11.688 491.377L46.376 491.377ZM106.152 415.285C106.152 422.282 104.787 427.872 102.056 432.053C99.3253 436.234 95.4426 439.221 90.408 441.013C85.288 442.805 79.3146 443.701 72.488 443.701L33.192 443.701C26.3653 443.701 20.52 442.805 15.656 441.013C10.7066 439.136 6.95198 436.149 4.39198 432.053C1.74664 427.872 0.423977 422.282 0.423976 415.285C0.423976 408.288 1.74664 402.741 4.39198 398.645C7.03731 394.549 10.792 391.605 15.656 389.813C20.52 387.936 26.3653 386.997 33.192 386.997L72.616 386.997C79.3573 386.997 85.2453 387.936 90.28 389.813C95.3146 391.605 99.24 394.549 102.056 398.645C104.787 402.741 106.152 408.288 106.152 415.285ZM94.76 415.285C94.76 411.445 93.992 408.544 92.456 406.581C90.8346 404.618 88.616 403.296 85.8 402.613C82.8986 401.93 79.528 401.589 75.688 401.589L30.248 401.589C26.408 401.589 23.1226 401.93 20.392 402.613C17.576 403.296 15.4426 404.618 13.992 406.581C12.456 408.544 11.688 411.445 11.688 415.285C11.688 419.125 12.456 422.069 13.992 424.117C15.4426 426.08 17.576 427.402 20.392 428.085C23.1226 428.768 26.408 429.109 30.248 429.109L75.688 429.109C79.528 429.109 82.8986 428.768 85.8 428.085C88.616 427.402 90.8346 426.08 92.456 424.117C93.992 422.069 94.76 419.125 94.76 415.285ZM123.816 376.877L94.632 376.877L94.632 372.141C93.4373 370.69 91.9866 369.282 90.28 367.917C88.5733 366.466 86.3546 365.144 83.624 363.949C80.808 362.669 77.224 361.517 72.872 360.493C68.4346 359.469 62.888 358.573 56.232 357.805C49.576 356.952 41.512 356.312 32.04 355.885L1.31997 354.221L1.31997 310.829L94.632 310.829L94.632 300.845L123.816 300.845L123.816 311.981L105 313.133L105 364.589L123.816 365.741L123.816 376.877ZM94.632 358.701L94.632 325.165L12.072 325.165L12.072 341.933L35.496 342.957C44.712 343.298 52.4773 343.853 58.792 344.621C65.0213 345.304 70.184 346.157 74.28 347.181C78.2906 348.12 81.576 349.229 84.136 350.509C86.6106 351.704 88.616 353.026 90.152 354.477C91.688 355.842 93.1813 357.25 94.632 358.701ZM105 293.043L1.31997 271.027L1.31997 257.075L105 234.931L105 248.627L78.888 253.363L78.888 274.483L105 279.475L105 293.043ZM68.52 272.563L68.52 255.283L21.8 263.987L68.52 272.563ZM105 221.851L1.31996 221.851L1.31996 207.387L47.4 207.387L47.4 202.011L1.31996 183.451L1.31996 168.987L50.6 189.467L105 166.427L105 180.891L54.44 201.883L54.44 207.387L105 207.387L105 221.851ZM105 154.291L1.31996 154.291L1.31996 139.827L94.504 139.827L94.504 121.139L1.31996 121.139L1.31996 106.675L94.504 106.675L94.504 88.883L1.31996 88.883L1.31996 74.419L105 74.419L105 154.291ZM105 55.731L1.31996 55.731L1.31996 41.267L46.12 41.267L46.12 14.643L1.31996 14.643L1.31995 0.179042L105 0.179038L105 14.643L56.488 14.643L56.488 41.267L105 41.267L105 55.731Z" fill="black"/>
</svg>
