<svg width="137" height="552" viewBox="0 0 137 552" fill="none" xmlns="http://www.w3.org/2000/svg">
<path d="M119.152 517.599C119.152 524.938 117.616 530.655 114.544 534.751C111.472 538.762 107.333 541.578 102.128 543.199C96.9227 544.735 91.12 545.503 84.72 545.503L48.112 545.503C41.1147 545.503 35.0133 544.735 29.808 543.199C24.6027 541.578 20.592 538.762 17.776 534.751C14.8747 530.655 13.424 524.938 13.424 517.599C13.424 511.114 14.6187 505.994 17.008 502.239C19.3973 498.399 22.8107 495.669 27.248 494.047C31.6853 492.341 37.0187 491.487 43.248 491.487L51.44 491.487L51.44 505.183L44.144 505.183C40.304 505.183 36.9333 505.397 34.032 505.823C31.0453 506.165 28.7413 507.189 27.12 508.895C25.4987 510.602 24.688 513.461 24.688 517.471C24.688 521.567 25.584 524.554 27.376 526.431C29.0827 528.309 31.5573 529.546 34.8 530.143C37.9573 530.655 41.6693 530.911 45.936 530.911L87.024 530.911C92.2293 530.911 96.368 530.485 99.44 529.631C102.427 528.778 104.56 527.37 105.84 525.407C107.12 523.445 107.76 520.799 107.76 517.471C107.76 513.546 106.907 510.73 105.2 509.023C103.408 507.317 100.976 506.25 97.904 505.823C94.832 505.397 91.248 505.183 87.152 505.183L79.472 505.183L79.472 491.487L87.152 491.487C93.4667 491.487 99.056 492.255 103.92 493.791C108.699 495.327 112.453 497.973 115.184 501.727C117.829 505.482 119.152 510.773 119.152 517.599ZM136.816 418.06L118 419.212L118 475.148L14.32 475.148L14.32 460.684L107.632 460.684L107.632 431.244L14.32 431.244L14.32 416.78L107.632 416.78L107.632 406.924L136.816 406.924L136.816 418.06Z" fill="white"/>
<path d="M118 392.963L14.32 392.963L14.32 352.771L25.072 352.771L25.072 378.499L59.376 378.499L59.376 357.635L69.616 357.635L69.616 378.499L107.632 378.499L107.632 352.515L118 352.515L118 392.963ZM118 338.278L14.32 338.278L14.32 323.814L59.12 323.814L59.12 297.19L14.32 297.19L14.32 282.726L118 282.726L118 297.19L69.488 297.19L69.488 323.814L118 323.814L118 338.278ZM118 269.6L14.32 247.584L14.32 233.632L118 211.488L118 225.184L91.888 229.92L91.888 251.04L118 256.032L118 269.6ZM81.52 249.12L81.52 231.84L34.8 240.544L81.52 249.12ZM118 198.408L14.32 198.409L14.32 172.681C14.32 166.451 15.472 161.502 17.776 157.832C19.9946 154.078 23.2373 151.347 27.504 149.64C31.7706 147.934 36.9333 147.08 42.992 147.08C48.4533 147.08 53.1893 148.062 57.2 150.024C61.2106 151.902 64.3253 154.718 66.544 158.472C68.6773 162.227 69.744 166.92 69.744 172.552L69.744 183.944L118 183.944L118 198.408ZM59.376 183.944L59.376 177.288C59.376 173.107 58.9066 169.822 57.968 167.433C57.0293 165.043 55.408 163.336 53.104 162.312C50.7146 161.288 47.3866 160.776 43.12 160.776C38.1706 160.776 34.3733 161.16 31.728 161.928C29.0826 162.611 27.248 164.105 26.224 166.408C25.2 168.713 24.688 172.297 24.688 177.161L24.688 183.945L59.376 183.944ZM118 134.349L14.32 134.349L14.32 121.549L86.128 121.549L14.32 91.2125L14.32 80.8445L118 80.8445L118 93.5165L45.04 93.5165L118 123.597L118 134.349ZM118 62.0385L14.32 62.0385L14.32 49.2385L86.128 49.2385L14.32 18.9025L14.32 8.53447L118 8.53447L118 21.2065L45.04 21.2065L118 51.2865L118 62.0385Z" fill="black"/>
<path d="M134 386L134 9" stroke="black" stroke-width="2" stroke-linecap="round"/>
</svg>
