<svg width="137" height="836" viewBox="0 0 137 836" fill="none" xmlns="http://www.w3.org/2000/svg">
<path d="M118 827.641L14.32 827.641L14.32 770.553L118 770.553L118 785.017L24.688 785.017L24.688 813.177L118 813.177L118 827.641ZM118 751.831L14.32 751.831L14.32 726.103C14.32 719.874 15.472 714.924 17.776 711.255C19.9947 707.5 23.2373 704.77 27.504 703.063C31.7707 701.356 36.9333 700.503 42.992 700.503C48.4533 700.503 53.1893 701.484 57.2 703.447C61.2107 705.324 64.3253 708.14 66.544 711.895C68.6773 715.65 69.744 720.343 69.744 725.975L69.744 737.367L118 737.367L118 751.831ZM59.376 737.367L59.376 730.711C59.376 726.53 58.9067 723.244 57.968 720.855C57.0293 718.466 55.408 716.759 53.104 715.735C50.7147 714.711 47.3867 714.199 43.12 714.199C38.1707 714.199 34.3733 714.583 31.728 715.351C29.0827 716.034 27.248 717.527 26.224 719.831C25.2 722.135 24.688 725.719 24.688 730.583L24.688 737.367L59.376 737.367ZM119.152 661.275C119.152 668.272 117.787 673.862 115.056 678.043C112.325 682.224 108.443 685.211 103.408 687.003C98.288 688.795 92.3147 689.691 85.488 689.691L46.192 689.691C39.3653 689.691 33.52 688.795 28.656 687.003C23.7067 685.126 19.952 682.139 17.392 678.043C14.7467 673.862 13.424 668.272 13.424 661.275C13.424 654.278 14.7467 648.731 17.392 644.635C20.0373 640.539 23.792 637.595 28.656 635.803C33.52 633.926 39.3653 632.987 46.192 632.987L85.616 632.987C92.3573 632.987 98.2453 633.926 103.28 635.803C108.315 637.595 112.24 640.539 115.056 644.635C117.787 648.731 119.152 654.278 119.152 661.275ZM107.76 661.275C107.76 657.435 106.992 654.534 105.456 652.571C103.835 650.608 101.616 649.286 98.8 648.603C95.8987 647.92 92.528 647.579 88.688 647.579L43.248 647.579C39.408 647.579 36.1227 647.92 33.392 648.603C30.576 649.286 28.4427 650.608 26.992 652.571C25.456 654.534 24.688 657.435 24.688 661.275C24.688 665.115 25.456 668.059 26.992 670.107C28.4427 672.07 30.576 673.392 33.392 674.075C36.1227 674.758 39.408 675.099 43.248 675.099L88.688 675.099C92.528 675.099 95.8987 674.758 98.8 674.075C101.616 673.392 103.835 672.07 105.456 670.107C106.992 668.059 107.76 665.115 107.76 661.275ZM118 616.211L14.32 616.211L14.32 603.411L86.128 603.411L14.32 573.075L14.32 562.707L118 562.707L118 575.379L45.04 575.379L118 605.459L118 616.211ZM119.152 521.245C119.152 526.877 118.085 531.57 115.952 535.325C113.819 539.08 110.747 541.896 106.736 543.773C102.725 545.65 97.9893 546.589 92.528 546.589L89.072 546.589L89.072 533.021C89.6693 533.021 90.3093 533.021 90.992 533.021C91.5893 533.021 92.144 532.978 92.656 532.893C97.0933 532.722 100.72 531.869 103.536 530.333C106.352 528.797 107.76 525.768 107.76 521.245C107.76 517.917 106.992 515.4 105.456 513.693C103.835 511.986 101.616 510.834 98.8 510.237C95.8987 509.64 92.5707 509.341 88.816 509.341C83.44 509.341 78.96 510.536 75.376 512.925C71.792 515.314 69.7866 519.837 69.36 526.493C69.2747 526.834 69.232 527.261 69.232 527.773C69.232 528.2 69.232 528.669 69.232 529.181C69.232 529.608 69.232 530.034 69.232 530.461L58.224 530.461C58.224 530.12 58.224 529.736 58.224 529.309C58.224 528.797 58.224 528.328 58.224 527.901C58.1387 527.389 58.096 527.005 58.096 526.749C57.6693 520.178 55.9627 515.656 52.976 513.181C49.904 510.621 45.6373 509.341 40.176 509.341C35.4826 509.341 31.728 510.28 28.912 512.157C26.0106 513.949 24.56 517.192 24.56 521.885C24.56 526.408 26.0106 529.65 28.912 531.613C31.728 533.576 35.44 534.728 40.048 535.069C40.56 535.069 41.1146 535.069 41.712 535.069C42.224 535.069 42.7787 535.069 43.376 535.069L43.376 548.765L39.92 548.765C34.3733 548.765 29.6373 547.741 25.712 545.693C21.7867 543.645 18.7573 540.658 16.624 536.733C14.4906 532.808 13.424 528.029 13.424 522.397C13.424 516.68 14.5333 511.858 16.752 507.933C18.8853 503.922 21.9573 500.893 25.968 498.845C29.8933 496.712 34.6293 495.645 40.176 495.645C46.4053 495.645 51.4826 497.01 55.408 499.741C59.3333 502.386 61.936 505.97 63.216 510.493C64.24 507.421 65.8613 504.776 68.08 502.557C70.2986 500.338 73.1573 498.632 76.656 497.437C80.0693 496.242 84.1226 495.645 88.816 495.645C94.96 495.645 100.336 496.498 104.944 498.205C109.467 499.912 112.965 502.642 115.44 506.397C117.915 510.152 119.152 515.101 119.152 521.245ZM118 479.841L14.32 479.841L14.32 456.033C14.32 451.34 14.832 447.286 15.856 443.873C16.88 440.374 18.4586 437.473 20.592 435.169C22.7253 432.865 25.456 431.158 28.784 430.049C32.0266 428.94 35.8666 428.385 40.304 428.385C44.5706 428.385 48.2826 428.94 51.44 430.049C54.512 431.073 56.944 432.694 58.736 434.913C60.528 437.046 61.68 439.82 62.192 443.233C63.1306 439.052 64.752 435.681 67.056 433.121C69.2746 430.561 72.176 428.684 75.76 427.489C79.2586 426.209 83.4826 425.569 88.432 425.569C92.8693 425.569 96.9226 426.081 100.592 427.105C104.261 428.129 107.376 429.75 109.936 431.969C112.496 434.102 114.501 436.876 115.952 440.289C117.317 443.617 118 447.585 118 452.193L118 479.841ZM107.632 465.377L107.632 455.649C107.632 449.164 106.139 444.854 103.152 442.721C100.08 440.502 95.1733 439.393 88.432 439.393C84.08 439.393 80.4533 439.99 77.552 441.185C74.5653 442.294 72.3466 444.129 70.896 446.689C69.36 449.164 68.592 452.534 68.592 456.801L68.592 465.377L107.632 465.377ZM57.584 465.377L57.584 456.801C57.584 452.705 57.0293 449.505 55.92 447.201C54.7253 444.897 52.848 443.276 50.288 442.337C47.728 441.398 44.4 440.929 40.304 440.929C35.5253 440.929 32.0693 441.654 29.936 443.105C27.8026 444.556 26.48 446.817 25.968 449.889C25.3706 452.961 25.072 456.972 25.072 461.921L25.072 465.377L57.584 465.377ZM119.152 383.66C119.152 390.657 117.787 396.247 115.056 400.428C112.325 404.609 108.443 407.596 103.408 409.388C98.288 411.18 92.3146 412.076 85.488 412.076L46.192 412.076C39.3653 412.076 33.52 411.18 28.656 409.388C23.7066 407.511 19.952 404.524 17.392 400.428C14.7466 396.247 13.424 390.657 13.424 383.66C13.424 376.663 14.7466 371.116 17.392 367.02C20.0373 362.924 23.792 359.98 28.656 358.188C33.52 356.311 39.3653 355.372 46.192 355.372L85.616 355.372C92.3573 355.372 98.2453 356.311 103.28 358.188C108.315 359.98 112.24 362.924 115.056 367.02C117.787 371.116 119.152 376.663 119.152 383.66ZM107.76 383.66C107.76 379.82 106.992 376.919 105.456 374.956C103.835 372.993 101.616 371.671 98.8 370.988C95.8986 370.305 92.528 369.964 88.688 369.964L43.248 369.964C39.408 369.964 36.1226 370.305 33.392 370.988C30.576 371.671 28.4426 372.993 26.992 374.956C25.456 376.919 24.688 379.82 24.688 383.66C24.688 387.5 25.456 390.444 26.992 392.492C28.4426 394.455 30.576 395.777 33.392 396.46C36.1226 397.143 39.408 397.484 43.248 397.484L88.688 397.484C92.528 397.484 95.8986 397.143 98.8 396.46C101.616 395.777 103.835 394.455 105.456 392.492C106.992 390.444 107.76 387.5 107.76 383.66ZM136.816 345.252L107.632 345.252L107.632 340.516C106.437 339.065 104.987 337.657 103.28 336.292C101.573 334.841 99.3546 333.519 96.624 332.324C93.808 331.044 90.224 329.892 85.872 328.868C81.4346 327.844 75.888 326.948 69.232 326.18C62.576 325.327 54.512 324.687 45.04 324.26L14.32 322.596L14.32 279.204L107.632 279.204L107.632 269.22L136.816 269.22L136.816 280.356L118 281.508L118 332.964L136.816 334.116L136.816 345.252ZM107.632 327.076L107.632 293.54L25.072 293.54L25.072 310.308L48.496 311.332C57.712 311.673 65.4773 312.228 71.792 312.996C78.0213 313.679 83.184 314.532 87.28 315.556C91.2906 316.495 94.576 317.604 97.136 318.884C99.6106 320.079 101.616 321.401 103.152 322.852C104.688 324.217 106.181 325.625 107.632 327.076ZM119.152 229.802C119.152 237.141 117.616 242.858 114.544 246.954C111.472 250.965 107.333 253.781 102.128 255.402C96.9226 256.938 91.12 257.706 84.72 257.706L48.112 257.706C41.1146 257.706 35.0133 256.938 29.808 255.402C24.6026 253.781 20.592 250.965 17.776 246.954C14.8746 242.858 13.424 237.141 13.424 229.802C13.424 223.317 14.6186 218.197 17.008 214.442C19.3973 210.602 22.8106 207.871 27.248 206.25C31.6853 204.543 37.0186 203.69 43.248 203.69L51.44 203.69L51.44 217.386L44.144 217.386C40.304 217.386 36.9333 217.599 34.032 218.026C31.0453 218.367 28.7413 219.391 27.12 221.098C25.4986 222.805 24.688 225.663 24.688 229.674C24.688 233.77 25.584 236.757 27.376 238.634C29.0826 240.511 31.5573 241.749 34.8 242.346C37.9573 242.858 41.6693 243.114 45.936 243.114L87.024 243.114C92.2293 243.114 96.368 242.687 99.44 241.834C102.427 240.981 104.56 239.573 105.84 237.61C107.12 235.647 107.76 233.002 107.76 229.674C107.76 225.749 106.907 222.933 105.2 221.226C103.408 219.519 100.976 218.453 97.904 218.026C94.832 217.599 91.248 217.386 87.152 217.386L79.472 217.386L79.472 203.69L87.152 203.69C93.4666 203.69 99.056 204.458 103.92 205.994C108.699 207.53 112.453 210.175 115.184 213.93C117.829 217.685 119.152 222.975 119.152 229.802ZM118 175.959L25.072 175.959L25.072 193.495L14.32 193.495L14.32 144.471L25.072 144.471L25.072 161.495L118 161.495L118 175.959ZM118 131.916L14.32 131.916L14.32 108.108C14.32 103.415 14.832 99.3613 15.856 95.948C16.88 92.4493 18.4586 89.548 20.592 87.244C22.7253 84.94 25.456 83.2333 28.784 82.124C32.0266 81.0146 35.8666 80.46 40.304 80.46C44.5706 80.46 48.2826 81.0146 51.44 82.124C54.512 83.148 56.944 84.7693 58.736 86.988C60.528 89.1213 61.68 91.8946 62.192 95.308C63.1306 91.1266 64.752 87.756 67.056 85.196C69.2746 82.636 72.176 80.7586 75.76 79.564C79.2586 78.284 83.4826 77.644 88.432 77.644C92.8693 77.644 96.9226 78.156 100.592 79.18C104.261 80.204 107.376 81.8253 109.936 84.044C112.496 86.1773 114.501 88.9506 115.952 92.364C117.317 95.692 118 99.66 118 104.268L118 131.916ZM107.632 117.452L107.632 107.724C107.632 101.239 106.139 96.9293 103.152 94.796C100.08 92.5773 95.1733 91.468 88.432 91.468C84.08 91.468 80.4533 92.0653 77.552 93.26C74.5653 94.3693 72.3466 96.204 70.896 98.764C69.36 101.239 68.592 104.609 68.592 108.876L68.592 117.452L107.632 117.452ZM57.584 117.452L57.584 108.876C57.584 104.78 57.0293 101.58 55.92 99.276C54.7253 96.972 52.848 95.3506 50.288 94.412C47.728 93.4733 44.4 93.004 40.304 93.004C35.5253 93.004 32.0693 93.7293 29.936 95.18C27.8026 96.6306 26.48 98.892 25.968 101.964C25.3706 105.036 25.072 109.047 25.072 113.996L25.072 117.452L57.584 117.452ZM119.152 35.735C119.152 42.7324 117.787 48.3217 115.056 52.503C112.325 56.6844 108.443 59.671 103.408 61.463C98.288 63.255 92.3146 64.151 85.488 64.151L46.192 64.151C39.3653 64.151 33.52 63.255 28.656 61.463C23.7066 59.5857 19.952 56.599 17.392 52.503C14.7466 48.3217 13.424 42.7324 13.424 35.735C13.424 28.7377 14.7466 23.191 17.392 19.095C20.0373 14.999 23.792 12.055 28.656 10.263C33.52 8.38571 39.3653 7.44704 46.192 7.44704L85.616 7.44704C92.3573 7.44704 98.2453 8.3857 103.28 10.263C108.315 12.055 112.24 14.999 115.056 19.095C117.787 23.191 119.152 28.7377 119.152 35.735ZM107.76 35.735C107.76 31.895 106.992 28.9937 105.456 27.031C103.835 25.0684 101.616 23.7457 98.8 23.063C95.8986 22.3804 92.528 22.039 88.688 22.039L43.248 22.039C39.408 22.039 36.1226 22.3804 33.392 23.063C30.576 23.7457 28.4426 25.0684 26.992 27.031C25.456 28.9937 24.688 31.895 24.688 35.735C24.688 39.575 25.456 42.519 26.992 44.567C28.4426 46.5297 30.576 47.8524 33.392 48.535C36.1226 49.2177 39.408 49.559 43.248 49.559L88.688 49.559C92.528 49.559 95.8986 49.2177 98.8 48.535C101.616 47.8524 103.835 46.5297 105.456 44.567C106.992 42.519 107.76 39.575 107.76 35.735Z" fill="black"/>
<path d="M130 257L130 0.99999" stroke="black" stroke-width="2" stroke-linecap="round"/>
</svg>
