<svg width="240" height="688" viewBox="0 0 240 688" fill="none" xmlns="http://www.w3.org/2000/svg">
<path d="M105 685.936L1.31999 685.936L1.31999 662.128C1.31999 657.435 1.83199 653.381 2.85599 649.968C3.88 646.469 5.45866 643.568 7.59199 641.264C9.72532 638.96 12.456 637.253 15.784 636.144C19.0267 635.035 22.8667 634.48 27.304 634.48C31.5707 634.48 35.2827 635.035 38.44 636.144C41.512 637.168 43.944 638.789 45.736 641.008C47.528 643.141 48.68 645.915 49.192 649.328C50.1307 645.147 51.752 641.776 54.056 639.216C56.2747 636.656 59.176 634.779 62.76 633.584C66.2587 632.304 70.4827 631.664 75.432 631.664C79.8693 631.664 83.9227 632.176 87.592 633.2C91.2613 634.224 94.376 635.845 96.936 638.064C99.496 640.197 101.501 642.971 102.952 646.384C104.317 649.712 105 653.68 105 658.288L105 685.936ZM94.632 671.472L94.632 661.744C94.632 655.259 93.1387 650.949 90.152 648.816C87.08 646.597 82.1733 645.488 75.432 645.488C71.08 645.488 67.4533 646.085 64.552 647.28C61.5653 648.389 59.3467 650.224 57.896 652.784C56.36 655.259 55.592 658.629 55.592 662.896L55.592 671.472L94.632 671.472ZM44.584 671.472L44.584 662.896C44.584 658.8 44.0293 655.6 42.92 653.296C41.7253 650.992 39.848 649.371 37.288 648.432C34.728 647.493 31.4 647.024 27.304 647.024C22.5253 647.024 19.0693 647.749 16.936 649.2C14.8027 650.651 13.48 652.912 12.968 655.984C12.3707 659.056 12.072 663.067 12.072 668.016L12.072 671.472L44.584 671.472ZM105 616.251L1.31999 616.251L1.31999 603.451L73.128 603.451L1.31999 573.115L1.31999 562.747L105 562.747L105 575.419L32.04 575.419L105 605.499L105 616.251ZM106.152 521.285C106.152 526.917 105.085 531.61 102.952 535.365C100.819 539.12 97.7467 541.936 93.736 543.813C89.7253 545.69 84.9893 546.629 79.528 546.629L76.072 546.629L76.072 533.061C76.6693 533.061 77.3093 533.061 77.992 533.061C78.5893 533.061 79.144 533.018 79.656 532.933C84.0933 532.762 87.72 531.909 90.536 530.373C93.352 528.837 94.76 525.808 94.76 521.285C94.76 517.957 93.992 515.44 92.456 513.733C90.8347 512.026 88.616 510.874 85.8 510.277C82.8987 509.68 79.5707 509.381 75.816 509.381C70.44 509.381 65.96 510.576 62.376 512.965C58.792 515.354 56.7867 519.877 56.36 526.533C56.2747 526.874 56.232 527.301 56.232 527.813C56.232 528.24 56.232 528.709 56.232 529.221C56.232 529.648 56.232 530.074 56.232 530.501L45.224 530.501C45.224 530.16 45.224 529.776 45.224 529.349C45.224 528.837 45.224 528.368 45.224 527.941C45.1387 527.429 45.096 527.045 45.096 526.789C44.6693 520.218 42.9627 515.696 39.976 513.221C36.904 510.661 32.6373 509.381 27.176 509.381C22.4827 509.381 18.728 510.32 15.912 512.197C13.0107 513.989 11.56 517.232 11.56 521.925C11.56 526.448 13.0107 529.69 15.912 531.653C18.728 533.616 22.44 534.768 27.048 535.109C27.56 535.109 28.1147 535.109 28.712 535.109C29.224 535.109 29.7787 535.109 30.376 535.109L30.376 548.805L26.92 548.805C21.3733 548.805 16.6373 547.781 12.712 545.733C8.78666 543.685 5.75732 540.698 3.62399 536.773C1.49065 532.848 0.423989 528.069 0.423988 522.437C0.423988 516.72 1.53332 511.898 3.75199 507.973C5.88532 503.962 8.95732 500.933 12.968 498.885C16.8933 496.752 21.6293 495.685 27.176 495.685C33.4053 495.685 38.4827 497.05 42.408 499.781C46.3333 502.426 48.936 506.01 50.216 510.533C51.24 507.461 52.8613 504.816 55.08 502.597C57.2987 500.378 60.1573 498.672 63.656 497.477C67.0693 496.282 71.1227 495.685 75.816 495.685C81.96 495.685 87.336 496.538 91.944 498.245C96.4667 499.952 99.9653 502.682 102.44 506.437C104.915 510.192 106.152 515.141 106.152 521.285ZM120.744 481.161L109.608 481.161C110.035 476.724 110.035 473.31 109.608 470.921C109.181 468.446 108.285 466.74 106.92 465.801C105.64 464.777 103.891 464.265 101.672 464.265C99.368 464.265 96.6373 464.521 93.48 465.033L1.31998 485.513L1.31998 471.817L45.48 463.113L78.376 457.865L45.736 453.257L1.31998 445.449L1.31998 431.625L93.736 450.185C97.9173 451.038 101.587 451.764 104.744 452.361C107.901 452.873 110.589 453.641 112.808 454.665C115.027 455.604 116.776 457.054 118.056 459.017C119.336 460.98 120.189 463.753 120.616 467.337C121.043 470.836 121.085 475.444 120.744 481.161ZM105 425.078L1.31998 403.062L1.31998 389.11L105 366.966L105 380.662L78.888 385.398L78.888 406.518L105 411.51L105 425.078ZM68.52 404.598L68.52 387.318L21.8 396.022L68.52 404.598ZM105 361.694L94.248 361.694C94.3333 359.817 94.2053 358.11 93.864 356.574C93.5227 354.953 92.712 353.545 91.432 352.35C90.152 351.07 88.1467 349.961 85.416 349.022C82.6853 348.083 78.9733 347.273 74.28 346.59C69.5866 345.907 63.656 345.31 56.488 344.798L1.31998 341.342L1.31997 295.774L105 295.774L105 310.238L12.072 310.238L12.072 328.926L56.488 331.358C63.144 331.785 69.16 332.339 74.536 333.022C79.8266 333.705 84.4773 334.729 88.488 336.094C92.4133 337.374 95.6987 339.123 98.344 341.342C100.904 343.475 102.739 346.206 103.848 349.534C104.957 352.862 105.341 356.915 105 361.694ZM105 276.951L1.31997 276.951L1.31997 262.487L44.456 262.487L44.456 258.391C44.456 250.882 45.352 244.695 47.144 239.831C48.8506 234.967 51.88 231.34 56.232 228.951C60.584 226.476 66.728 225.239 74.664 225.239C80.04 225.239 84.648 225.879 88.488 227.159C92.2426 228.439 95.3573 230.444 97.832 233.175C100.307 235.82 102.141 239.191 103.336 243.287C104.445 247.298 105 252.119 105 257.751L105 276.951ZM94.632 262.487L94.632 257.751C94.632 253.399 94.1626 249.858 93.224 247.127C92.2 244.311 90.2373 242.22 87.336 240.855C84.4346 239.49 80.168 238.807 74.536 238.807C67.4533 238.807 62.4186 240.172 59.432 242.903C56.4453 245.634 54.952 250.668 54.952 258.007L54.952 262.487L94.632 262.487ZM105 211.141L1.31997 211.141L1.31997 196.677L46.12 196.677L46.12 170.053L1.31997 170.053L1.31997 155.589L105 155.589L105 170.053L56.488 170.053L56.488 196.677L105 196.677L105 211.141ZM105 136.831L1.31997 136.831L1.31997 122.367L44.456 122.367L44.456 118.271C44.456 110.762 45.352 104.575 47.144 99.711C48.8506 94.847 51.88 91.2203 56.232 88.831C60.584 86.3563 66.728 85.119 74.664 85.119C80.04 85.119 84.648 85.759 88.488 87.039C92.2426 88.319 95.3573 90.3243 97.832 93.055C100.307 95.7003 102.141 99.071 103.336 103.167C104.445 107.178 105 111.999 105 117.631L105 136.831ZM94.632 122.367L94.632 117.631C94.632 113.279 94.1626 109.738 93.224 107.007C92.2 104.191 90.2373 102.1 87.336 100.735C84.4346 99.3697 80.168 98.687 74.536 98.687C67.4533 98.687 62.4186 100.052 59.432 102.783C56.4453 105.514 54.952 110.548 54.952 117.887L54.952 122.367L94.632 122.367ZM105 74.367L1.31996 74.367L1.31996 59.903L105 59.903L105 74.367ZM105 41.146L1.31996 41.146L1.31996 0.954021L12.072 0.95402L12.072 26.682L46.376 26.682L46.376 5.81802L56.616 5.81802L56.616 26.682L94.632 26.682L94.632 0.698016L105 0.698016L105 41.146ZM234.744 661.488C234.744 667.973 233.549 673.136 231.16 676.976C228.771 680.816 225.357 683.589 220.92 685.296C216.483 686.917 211.149 687.728 204.92 687.728L199.8 687.728L199.8 674.032L203.896 674.032C207.651 674.032 211.021 673.861 214.008 673.52C216.995 673.093 219.341 672.027 221.048 670.32C222.669 668.528 223.48 665.627 223.48 661.616C223.48 657.52 222.584 654.533 220.792 652.656C219 650.779 216.483 649.584 213.24 649.072C209.997 648.56 206.243 648.304 201.976 648.304L185.592 648.304L185.592 666.48L176.12 666.48L176.12 648.304L161.016 648.304C155.811 648.304 151.715 648.731 148.728 649.584C145.656 650.437 143.48 651.845 142.2 653.808C140.92 655.685 140.28 658.288 140.28 661.616C140.28 665.456 141.133 668.272 142.84 670.064C144.547 671.771 146.979 672.88 150.136 673.392C153.208 673.819 156.792 674.032 160.888 674.032L165.368 674.032L165.368 687.728L160.76 687.728C154.445 687.728 148.899 686.96 144.12 685.424C139.341 683.888 135.629 681.243 132.984 677.488C130.253 673.648 128.888 668.315 128.888 661.488C128.888 654.149 130.424 648.475 133.496 644.464C136.568 640.453 140.707 637.68 145.912 636.144C151.032 634.523 156.835 633.712 163.32 633.712L199.928 633.712C206.925 633.712 213.069 634.523 218.36 636.144C223.565 637.68 227.619 640.453 230.52 644.464C233.336 648.475 234.744 654.149 234.744 661.488ZM239.608 590.121L222.2 590.121C222.285 590.548 222.371 591.23 222.456 592.169C222.541 593.108 222.584 593.918 222.584 594.601C222.584 599.806 221.773 604.244 220.152 607.913C218.531 611.497 215.715 614.228 211.704 616.105C207.693 617.982 202.189 618.921 195.192 618.921L169.336 618.921C162.424 618.921 156.963 618.025 152.952 616.233C148.941 614.441 146.083 611.881 144.376 608.553C142.584 605.14 141.688 601.086 141.688 596.393C141.688 595.198 141.731 594.004 141.816 592.809C141.816 591.614 141.859 590.718 141.944 590.121L121.976 590.121L121.976 575.657L141.944 575.657C141.859 574.804 141.816 573.737 141.816 572.457C141.731 571.177 141.688 570.068 141.688 569.129C141.688 564.265 142.584 560.169 144.376 556.841C146.083 553.428 148.984 550.868 153.08 549.161C157.091 547.369 162.509 546.473 169.336 546.473L195.192 546.473C202.104 546.473 207.565 547.369 211.576 549.161C215.587 550.953 218.445 553.428 220.152 556.585C221.773 559.742 222.584 563.326 222.584 567.337C222.584 568.702 222.541 570.068 222.456 571.433C222.371 572.798 222.285 574.206 222.2 575.657L239.608 575.657L239.608 590.121ZM213.88 593.705C213.88 593.022 213.88 592.34 213.88 591.657C213.795 590.974 213.709 590.462 213.624 590.121L150.648 590.121C150.563 590.889 150.52 591.657 150.52 592.425C150.435 593.193 150.392 593.918 150.392 594.601C150.392 597.417 150.947 599.636 152.056 601.257C153.165 602.878 155.085 604.03 157.816 604.713C160.547 605.396 164.387 605.737 169.336 605.737L195.192 605.737C200.141 605.737 203.981 605.438 206.712 604.841C209.443 604.244 211.32 603.092 212.344 601.385C213.368 599.678 213.88 597.118 213.88 593.705ZM213.88 570.921C213.88 567.849 213.368 565.502 212.344 563.881C211.32 562.26 209.443 561.15 206.712 560.553C203.981 559.956 200.141 559.657 195.192 559.657L169.336 559.657C164.387 559.657 160.547 559.956 157.816 560.553C155.085 561.15 153.165 562.26 152.056 563.881C150.947 565.502 150.392 567.934 150.392 571.177C150.392 571.945 150.435 572.713 150.52 573.481C150.52 574.249 150.563 574.974 150.648 575.657L213.624 575.657C213.709 575.06 213.795 574.334 213.88 573.481C213.88 572.628 213.88 571.774 213.88 570.921ZM239.608 502.811L222.2 502.811C222.285 503.238 222.371 503.92 222.456 504.859C222.541 505.798 222.584 506.608 222.584 507.291C222.584 512.496 221.773 516.934 220.152 520.603C218.531 524.187 215.715 526.918 211.704 528.795C207.693 530.672 202.189 531.611 195.192 531.611L169.336 531.611C162.424 531.611 156.963 530.715 152.952 528.923C148.941 527.131 146.083 524.571 144.376 521.243C142.584 517.83 141.688 513.776 141.688 509.083C141.688 507.888 141.731 506.694 141.816 505.499C141.816 504.304 141.859 503.408 141.944 502.811L121.976 502.811L121.976 488.347L141.944 488.347C141.859 487.494 141.816 486.427 141.816 485.147C141.731 483.867 141.688 482.758 141.688 481.819C141.688 476.955 142.584 472.859 144.376 469.531C146.083 466.118 148.984 463.558 153.08 461.851C157.091 460.059 162.509 459.163 169.336 459.163L195.192 459.163C202.104 459.163 207.565 460.059 211.576 461.851C215.587 463.643 218.445 466.118 220.152 469.275C221.773 472.432 222.584 476.016 222.584 480.027C222.584 481.392 222.541 482.758 222.456 484.123C222.371 485.488 222.285 486.896 222.2 488.347L239.608 488.347L239.608 502.811ZM213.88 506.395C213.88 505.712 213.88 505.03 213.88 504.347C213.795 503.664 213.709 503.152 213.624 502.811L150.648 502.811C150.563 503.579 150.52 504.347 150.52 505.115C150.435 505.883 150.392 506.608 150.392 507.291C150.392 510.107 150.947 512.326 152.056 513.947C153.165 515.568 155.085 516.72 157.816 517.403C160.547 518.086 164.387 518.427 169.336 518.427L195.192 518.427C200.141 518.427 203.981 518.128 206.712 517.531C209.443 516.934 211.32 515.782 212.344 514.075C213.368 512.368 213.88 509.808 213.88 506.395ZM213.88 483.611C213.88 480.539 213.368 478.192 212.344 476.571C211.32 474.95 209.443 473.84 206.712 473.243C203.981 472.646 200.141 472.347 195.192 472.347L169.336 472.347C164.387 472.347 160.547 472.646 157.816 473.243C155.085 473.84 153.165 474.95 152.056 476.571C150.947 478.192 150.392 480.624 150.392 483.867C150.392 484.635 150.435 485.403 150.52 486.171C150.52 486.939 150.563 487.664 150.648 488.347L213.624 488.347C213.709 487.75 213.795 487.024 213.88 486.171C213.88 485.318 213.88 484.464 213.88 483.611ZM235 442.381L131.32 442.381L131.32 402.189L142.072 402.189L142.072 427.917L176.376 427.917L176.376 407.053L186.616 407.053L186.616 427.917L224.632 427.917L224.632 401.933L235 401.933L235 442.381ZM235 387.696L131.32 387.696L131.32 373.232L177.4 373.232L177.4 367.856L131.32 349.296L131.32 334.832L180.6 355.312L235 332.272L235 346.736L184.44 367.728L184.44 373.232L235 373.232L235 387.696ZM235 308.744L142.072 308.744L142.072 326.28L131.32 326.28L131.32 277.256L142.072 277.256L142.072 294.28L235 294.28L235 308.744ZM235 264.701L131.32 264.701L131.32 250.237L174.456 250.237L174.456 246.141C174.456 238.632 175.352 232.445 177.144 227.581C178.851 222.717 181.88 219.09 186.232 216.701C190.584 214.226 196.728 212.989 204.664 212.989C210.04 212.989 214.648 213.629 218.488 214.909C222.243 216.189 225.357 218.194 227.832 220.925C230.307 223.57 232.141 226.941 233.336 231.037C234.445 235.048 235 239.869 235 245.501L235 264.701ZM224.632 250.237L224.632 245.501C224.632 241.149 224.163 237.608 223.224 234.877C222.2 232.061 220.237 229.97 217.336 228.605C214.435 227.24 210.168 226.557 204.536 226.557C197.453 226.557 192.419 227.922 189.432 230.653C186.445 233.384 184.952 238.418 184.952 245.757L184.952 250.237L224.632 250.237ZM235 202.237L131.32 202.237L131.32 187.773L235 187.773L235 202.237Z" fill="black"/>
</svg>
